<svg width="35" height="35" viewBox="0 0 35 35" fill="none" xmlns="http://www.w3.org/2000/svg">
<path fill-rule="evenodd" clip-rule="evenodd" d="M18.7979 2.1146L30.4646 7.94793C31.4557 8.44045 32.0827 9.45155 32.0833 10.5583V24.4563C32.0827 25.5631 31.4557 26.5742 30.4646 27.0667L18.7979 32.9C17.9763 33.3111 17.009 33.3111 16.1875 32.9L4.5208 27.0667C3.53058 26.5677 2.90892 25.5505 2.91664 24.4417V10.5583C2.91722 9.45155 3.54422 8.44045 4.53539 7.94793L16.2021 2.1146C17.0196 1.70833 17.9803 1.70833 18.7979 2.1146Z" stroke="white" stroke-width="2" stroke-linecap="round" stroke-linejoin="round"/>
<path d="M3.38336 8.98332L17.5 16.0417L31.6167 8.98332" stroke="white" stroke-width="2" stroke-linecap="round" stroke-linejoin="round"/>
<path d="M17.5 33.1917V16.0417" stroke="white" stroke-width="2" stroke-linecap="round" stroke-linejoin="round"/>
<path d="M10.2083 5.10417L24.7916 12.3958" stroke="white" stroke-width="2" stroke-linecap="round" stroke-linejoin="round"/>
</svg>
