<svg width="35" height="35" viewBox="0 0 35 35" fill="none" xmlns="http://www.w3.org/2000/svg">
<path d="M24.7916 30.625V27.7083C24.7916 24.4867 22.18 21.875 18.9583 21.875H7.29165C4.06998 21.875 1.45831 24.4867 1.45831 27.7083V30.625" stroke="white" stroke-width="2" stroke-linecap="round" stroke-linejoin="round"/>
<path fill-rule="evenodd" clip-rule="evenodd" d="M13.125 16.0417C16.3467 16.0417 18.9584 13.43 18.9584 10.2083C18.9584 6.98667 16.3467 4.375 13.125 4.375C9.90336 4.375 7.29169 6.98667 7.29169 10.2083C7.29169 13.43 9.90336 16.0417 13.125 16.0417Z" stroke="white" stroke-width="2" stroke-linecap="round" stroke-linejoin="round"/>
<path d="M33.5417 30.625V27.7083C33.5397 25.05 31.7406 22.7292 29.1667 22.0646" stroke="white" stroke-width="2" stroke-linecap="round" stroke-linejoin="round"/>
<path d="M23.3333 4.56459C25.9145 5.22546 27.7198 7.55124 27.7198 10.2156C27.7198 12.88 25.9145 15.2058 23.3333 15.8667" stroke="white" stroke-width="2" stroke-linecap="round" stroke-linejoin="round"/>
</svg>
